<svg width="96.000000" height="96.000000" viewBox="0 0 96 96" fill="none" xmlns="http://www.w3.org/2000/svg" xmlns:xlink="http://www.w3.org/1999/xlink">
	<desc>
			Created with Pixso.
	</desc>
	<defs>
		<linearGradient x1="3.503799" y1="1.693829" x2="91.068657" y2="91.083069" id="paint_linear_1380_12023_0" gradientUnits="userSpaceOnUse">
			<stop stop-color="#449AFF"/>
			<stop offset="0.509981" stop-color="#1476FF"/>
			<stop offset="1.000000" stop-color="#3589FF"/>
		</linearGradient>
		<linearGradient x1="82.165268" y1="2.214344" x2="15.486004" y2="96.000000" id="paint_linear_1380_12023_1" gradientUnits="userSpaceOnUse">
			<stop stop-color="#A8D3FF" stop-opacity="0.125490"/>
			<stop offset="0.504658" stop-color="#1E5ABE" stop-opacity="0.207843"/>
			<stop offset="1.000000" stop-color="#5982F7" stop-opacity="0.290196"/>
		</linearGradient>
		<linearGradient x1="28.739349" y1="28.517551" x2="66.643593" y2="55.830940" id="paint_linear_1380_12025_0" gradientUnits="userSpaceOnUse">
			<stop stop-color="#449AFF"/>
			<stop offset="0.509981" stop-color="#1476FF"/>
			<stop offset="1.000000" stop-color="#3589FF"/>
		</linearGradient>
	</defs>
	<rect id="编译构建CodeArts Build" width="96.000000" height="96.000000" fill="#FFFFFF" fill-opacity="0"/>
	<rect id="矩形备份 19" rx="17.726515" width="96.000000" height="96.000000" fill="#1476FF" fill-opacity="1.000000"/>
	<rect id="矩形备份 19" rx="17.726515" width="96.000000" height="96.000000" fill="url(#paint_linear_1380_12023_0)" fill-opacity="0"/>
	<rect id="矩形备份 19" rx="17.726515" width="96.000000" height="96.000000" fill="url(#paint_linear_1380_12023_1)" fill-opacity="0"/>
	<rect id="矩形备份 19" x="0.369141" y="0.369263" rx="17.726515" width="95.261398" height="95.261398" stroke="#979797" stroke-opacity="0" stroke-width="0.738605"/>
	<path id="Fill 1备份 2" d="M21.05 16C18.26 16 16 18.27 16 21.06L16 58.6C16 61.05 17.65 63.91 19.77 65.12L44.24 79.08C45.26 79.67 46.6 80 48 80C49.39 80 50.73 79.67 51.75 79.08L76.22 65.12C78.34 63.91 80 61.05 80 58.6L80 21.06C80 18.27 77.73 16 74.94 16L21.05 16Z" fill="#FFFFFF" fill-opacity="1.000000" fill-rule="evenodd"/>
	<rect id="矩形" x="27.222656" y="28.000000" rx="2.667184" width="41.555557" height="29.333330" fill="#1476FF" fill-opacity="1.000000"/>
	<rect id="矩形" x="27.222656" y="28.000000" rx="2.667184" width="41.555557" height="29.333330" fill="url(#paint_linear_1380_12025_0)" fill-opacity="1.000000"/>
	<rect id="矩形" x="27.591797" y="28.369263" rx="2.667184" width="40.816952" height="28.594725" stroke="#979797" stroke-opacity="0" stroke-width="0.738605"/>
	<path id="直线 8备份 8" d="M40.68 37.64L40.66 37.66C40.1 37.66 39.66 37.22 39.66 36.66C39.66 36.1 40.1 35.66 40.66 35.66L40.68 35.68L40.68 37.64ZM55.31 35.68L55.33 35.66C55.89 35.66 56.33 36.1 56.33 36.66C56.33 37.22 55.89 37.66 55.33 37.66L55.31 37.64L55.31 35.68Z" fill="#D8D8D8" fill-opacity="0" fill-rule="nonzero"/>
	<path id="直线 8备份 8" d="M40.66 36.66L55.33 36.66" stroke="#FFFFFF" stroke-opacity="1.000000" stroke-width="2.000388" stroke-linejoin="round"/>
</svg>
